<svg id="Layer_1" enable-background="new 0 0 512.001 512.001" height="512" viewBox="0 0 512.001 512.001" width="512" xmlns="http://www.w3.org/2000/svg"><g><g><path d="m122.21 169.003 60.678 35.033c3.328 1.922 7.026 2.903 10.779 2.903 1.889 0 3.792-.249 5.667-.751 5.602-1.501 10.277-5.083 13.166-10.086l43.5-75.345 20.984 36.345-11.566 6.677c-3.382 1.953-5.318 5.696-4.957 9.584.36 3.889 2.952 7.211 6.636 8.508l101.55 35.76c1.079.38 2.202.568 3.321.568 1.736 0 3.463-.452 5-1.34 2.528-1.459 4.292-3.951 4.829-6.82l19.806-105.824c.719-3.839-.863-7.745-4.051-10.001-3.188-2.258-7.396-2.452-10.778-.5l-11.565 6.677-33.231-57.558c-9.451-16.37-19.58-25.846-43.386-25.846h-85.182c-23.806 0-33.935 9.477-43.386 25.847l-3.771 6.531c-2.762 4.783-1.123 10.899 3.66 13.66 1.575.909 3.294 1.341 4.99 1.341 3.456 0 6.818-1.794 8.67-5.002l3.771-6.531c5.986-10.368 10.159-14.607 20.433-15.602l36.677 63.526-49.274 85.345c-.278.483-.71.684-1.022.768-.311.083-.785.125-1.269-.154l-60.68-35.033c-.482-.279-.684-.709-.767-1.021-.084-.313-.125-.786.153-1.269l6.972-12.075c2.762-4.783 1.123-10.898-3.66-13.66-4.784-2.762-10.898-1.122-13.66 3.66l-6.972 12.076c-2.889 5.003-3.652 10.843-2.152 16.445 1.501 5.6 5.084 10.276 10.087 13.164zm176.381-132.017c14.583 0 19.089 3.763 26.065 15.846l38.231 66.218c2.762 4.782 8.876 6.42 13.66 3.661l1.396-.807-13.659 72.986-70.037-24.663 1.396-.807c2.297-1.326 3.973-3.51 4.659-6.072s.327-5.292-.999-7.588l-68.573-118.774z"/><path d="m205.89 358.241h-87.001l20.984-36.345 11.566 6.677c3.382 1.952 7.592 1.757 10.778-.499 3.188-2.256 4.77-6.162 4.051-10.001l-19.807-105.825c-.537-2.869-2.301-5.361-4.829-6.82-2.527-1.46-5.568-1.743-8.321-.772l-101.55 35.76c-3.684 1.297-6.275 4.62-6.636 8.508-.361 3.889 1.575 7.631 4.957 9.584l11.565 6.678-33.23 57.559c-9.451 16.37-12.595 29.88-.691 50.496l42.591 73.77c11.903 20.617 25.175 24.65 44.076 24.65h111.497c11.952 0 21.677-9.724 21.677-21.677v-70.065c0-11.954-9.725-21.678-21.677-21.678zm-180.152-25.496 38.23-66.219c2.762-4.783 1.123-10.899-3.66-13.66l-1.397-.807 70.039-24.664 13.66 72.986-1.397-.807c-4.784-2.762-10.9-1.122-13.66 3.661l-68.576 118.776-33.931-58.77c-7.291-12.629-6.285-18.412.692-30.496zm181.829 117.239c0 .894-.783 1.677-1.677 1.677h-111.497c-11.972 0-17.729-1.494-23.728-9.894l36.677-63.526h98.548c.894 0 1.677.784 1.677 1.677z"/><path d="m503.584 322.745-55.748-96.56c-5.979-10.351-19.262-13.909-29.611-7.933l-60.679 35.033c-10.35 5.975-13.91 19.258-7.935 29.611l43.5 75.345h-41.968v-13.355c0-3.905-2.273-7.453-5.821-9.085-3.547-1.633-7.721-1.049-10.687 1.492l-81.743 70.064c-2.217 1.9-3.492 4.673-3.492 7.593s1.275 5.693 3.492 7.593l81.743 70.065c1.849 1.584 4.166 2.407 6.51 2.407 1.415 0 2.84-.3 4.176-.915 3.549-1.632 5.822-5.18 5.822-9.084l.001-13.356h66.463c18.901 0 32.174-4.033 44.076-24.649l42.591-73.77c.001-.001.001-.003.002-.004 11.902-20.615 8.759-34.124-.692-50.492zm-136.651-49.848c-.447-.774-.16-1.846.613-2.292l60.68-35.033c.771-.448 1.844-.159 2.29.614l55.748 96.559c5.984 10.365 7.557 16.105 3.286 25.496h-73.344zm77.431 164.113c-7.292 12.629-12.803 14.649-26.756 14.649h-76.462c-5.522 0-10 4.477-10 9.999v1.615l-56.379-48.324 56.377-48.322v1.613c0 5.523 4.478 10 10 10h137.15z"/><path d="m152.416 103.342c5.522 0 10-4.477 10-10s-4.478-10-10-10h-.007c-5.522 0-9.996 4.477-9.996 10s4.481 10 10.003 10z"/></g></g></svg>